<svg xmlns="http://www.w3.org/2000/svg" viewBox="0 0 3500 3500" shape-rendering="geometricPrecision" text-rendering="geometricPrecision" image-rendering="optimizeQuality" fill-rule="evenodd" clip-rule="evenodd"><path d="M380 250h2740c72 0 130 58 130 130v2740c0 72-58 130-130 130H380c-72 0-130-58-130-130V380c0-72 58-130 130-130zm400 532l160-8c20-1 37 4 54 16s28 26 33 44l80 274 1530-81c28-1 50 8 68 29 19 20 26 44 21 71l-128 821c-5 24-19 49-42 74-24 26-55 40-92 42l-1081 57 99 337 914-48c24-1 45 6 62 22 18 16 27 35 28 59s-6 45-21 62c-16 18-36 27-60 28l-85 5 4 85c1 24-6 44-22 62-15 17-35 27-59 28s-44-6-61-22c-18-15-27-35-29-59l-4-85-512 26 4 86c1 24-6 44-21 62-16 17-36 26-60 28-24 1-44-6-62-22-17-16-27-35-28-59l-4-86-53 3c-21 1-39-4-57-14-17-10-29-21-36-31l-10-16L881 948l-92 5c-23 1-43-6-61-22-18-15-28-35-29-59s6-44 22-62c16-17 36-27 59-28z" fill="#129ed9"/></svg>